<?xml version="1.0" standalone="no"?>
<!DOCTYPE svg PUBLIC "-//W3C//DTD SVG 20010904//EN"
 "http://www.w3.org/TR/2001/REC-SVG-20010904/DTD/svg10.dtd">
<svg version="1.0" xmlns="http://www.w3.org/2000/svg"
 width="650.000000pt" height="650.000000pt" viewBox="0 0 650.000000 650.000000"
 preserveAspectRatio="xMidYMid meet">
<metadata>
Created by potrace 1.11, written by Peter Selinger 2001-2013
</metadata>
<g transform="translate(0.000000,650.000000) scale(0.100000,-0.100000)"
fill="#000000" stroke="none">
<path d="M3205 4986 c-127 -74 -747 -434 -840 -487 -60 -34 -111 -66 -113 -71
-2 -4 -10 -8 -17 -8 -8 0 -21 -7 -29 -16 -9 -8 -16 -13 -16 -10 0 3 -30 -13
-67 -36 -38 -22 -86 -51 -108 -63 l-40 -23 -3 -216 c-2 -161 0 -216 9 -216 6
0 28 -10 48 -22 20 -13 38 -23 41 -23 3 0 24 -13 47 -28 24 -15 47 -27 53 -27
5 0 10 -4 10 -9 0 -5 9 -11 20 -14 11 -3 20 -10 20 -15 0 -6 -53 -41 -117 -78
-65 -37 -121 -72 -124 -77 -11 -16 -10 -429 1 -422 5 3 10 1 10 -6 0 -7 3 -10
6 -7 3 4 14 -2 25 -13 11 -11 24 -17 29 -14 6 4 10 2 10 -4 0 -6 11 -13 25
-17 14 -3 25 -10 25 -15 0 -5 7 -9 15 -9 8 0 15 -5 15 -11 0 -5 5 -7 10 -4 6
3 10 3 10 -2 0 -4 15 -15 33 -22 17 -8 38 -21 45 -28 8 -7 18 -11 23 -8 5 4 9
2 9 -3 0 -5 17 -17 38 -28 20 -10 39 -22 42 -26 3 -3 12 -8 20 -10 8 -2 23
-11 34 -20 10 -10 23 -15 28 -12 4 3 8 0 8 -5 0 -6 7 -11 15 -11 8 0 15 -4 15
-10 0 -5 5 -10 11 -10 6 0 31 -14 56 -30 24 -17 41 -25 38 -18 -4 7 0 5 8 -4
8 -10 20 -18 26 -18 7 0 21 -9 33 -20 12 -10 25 -17 30 -14 4 3 8 2 8 -3 0 -4
15 -14 33 -22 17 -8 34 -17 37 -20 6 -8 75 -47 120 -69 19 -9 43 -25 53 -35
10 -10 21 -15 26 -13 5 3 16 -3 26 -14 10 -11 22 -17 26 -14 5 3 9 0 9 -6 0
-6 5 -8 10 -5 6 3 10 2 10 -2 0 -12 56 -44 64 -36 3 3 6 2 6 -4 0 -9 38 -31
50 -30 3 1 15 -8 28 -18 12 -11 25 -18 27 -15 2 3 11 -4 20 -15 9 -11 13 -13
9 -5 -7 13 -5 13 8 2 17 -14 31 -8 125 51 21 13 45 27 53 30 8 4 31 17 50 28
38 23 302 177 415 242 39 23 73 46 77 51 4 6 8 7 8 3 0 -5 13 1 29 12 16 12
34 21 40 21 6 0 11 3 11 8 0 4 15 13 33 21 17 8 34 17 37 20 3 3 15 12 28 19
50 28 280 161 327 189 l50 29 3 210 3 211 -48 24 c-26 13 -54 30 -62 38 -8 7
-27 18 -43 23 -15 6 -28 14 -28 20 0 5 -4 6 -10 3 -5 -3 -10 -1 -10 4 0 6 -5
11 -11 11 -6 0 -18 7 -27 16 -18 18 -21 15 67 65 25 14 64 36 86 50 23 13 50
29 60 35 19 10 20 24 23 228 2 211 2 216 -18 216 -11 0 -20 5 -20 10 0 6 -5
10 -11 10 -6 0 -23 9 -39 20 -15 11 -30 17 -34 13 -3 -3 -6 -1 -6 5 0 7 -7 12
-15 12 -8 0 -15 3 -15 8 0 4 -10 12 -23 17 -35 17 -112 59 -117 66 -3 3 -30
19 -60 35 -30 16 -61 35 -68 41 -7 7 -20 13 -28 13 -8 0 -14 5 -14 12 0 6 -3
9 -6 5 -4 -3 -22 5 -40 20 -19 14 -34 21 -34 17 0 -5 -4 -4 -8 1 -4 6 -28 22
-54 35 -27 14 -48 29 -48 33 0 5 -4 5 -10 2 -5 -3 -10 -2 -10 3 0 6 -10 12
-23 16 -12 3 -31 13 -42 23 -22 20 -76 47 -87 45 -5 -1 -8 2 -8 6 0 9 -53 37
-57 30 -1 -1 -9 6 -17 17 -9 11 -16 16 -16 12 0 -5 -7 -1 -16 7 -8 9 -20 14
-25 11 -5 -4 -9 -2 -9 3 0 5 -18 17 -40 28 -22 10 -40 22 -40 27 0 4 -5 7 -10
7 -6 0 -40 18 -76 40 -36 22 -73 40 -81 40 -8 0 -11 5 -8 10 3 6 -3 10 -14 10
-12 0 -21 5 -21 10 0 15 -11 12 -55 -14z m63 -408 c7 -7 12 -9 12 -5 0 4 10
-1 22 -12 11 -11 25 -18 30 -15 4 3 8 0 8 -5 0 -6 7 -11 15 -11 8 0 15 -4 15
-10 0 -5 5 -10 12 -10 6 0 20 -8 31 -17 13 -11 17 -13 12 -4 -5 8 7 3 27 -12
19 -15 40 -27 46 -27 7 0 12 -4 12 -10 0 -5 5 -10 10 -10 6 0 28 -11 50 -25
22 -14 40 -22 40 -18 0 5 5 0 11 -9 5 -10 17 -18 25 -18 8 0 24 -9 36 -20 12
-10 25 -17 30 -14 4 3 8 0 8 -6 0 -6 5 -8 10 -5 6 3 10 2 10 -3 0 -9 50 -37
63 -34 4 1 7 -2 7 -6 0 -4 25 -21 55 -37 30 -17 55 -34 55 -38 0 -5 5 -5 11
-2 6 4 17 -1 24 -11 8 -11 15 -15 15 -10 0 6 7 1 16 -10 8 -10 12 -12 8 -4 -4
8 4 5 18 -8 13 -12 28 -19 31 -15 4 3 7 2 7 -3 0 -5 17 -18 38 -29 20 -11 40
-24 43 -28 3 -5 10 -8 15 -7 5 1 10 -2 11 -7 2 -5 -35 -31 -82 -57 -47 -26
-85 -53 -85 -59 0 -5 -3 -7 -7 -4 -3 4 -22 -3 -41 -15 l-34 -21 -57 29 c-31
16 -60 35 -64 42 -5 7 -12 10 -16 7 -5 -2 -14 2 -21 10 -7 8 -16 13 -20 10 -4
-3 -11 2 -14 11 -3 8 -10 13 -15 10 -5 -3 -11 1 -15 9 -3 8 -12 12 -21 9 -8
-3 -15 -1 -15 5 0 7 -8 14 -17 18 -10 3 -30 14 -44 24 -14 10 -29 16 -33 12
-3 -3 -6 0 -6 7 0 7 -3 11 -6 7 -3 -3 -14 2 -25 11 -11 9 -23 17 -27 17 -4 0
-21 10 -38 22 -17 12 -34 20 -38 16 -3 -3 -6 -2 -6 3 0 5 -17 18 -37 29 -21
11 -40 22 -43 26 -6 6 -31 16 -44 17 -5 0 -13 7 -18 16 -10 17 -34 22 -40 7
-1 -5 -25 -20 -53 -35 -27 -14 -57 -31 -65 -36 -8 -6 -89 -53 -180 -105 -91
-52 -172 -99 -180 -105 -8 -5 -30 -17 -47 -26 -18 -9 -33 -20 -33 -25 0 -5 -3
-8 -7 -7 -5 1 -18 -4 -31 -11 -31 -17 -62 -22 -62 -10 0 5 -7 9 -15 9 -8 0
-15 4 -15 9 0 7 -17 15 -45 20 -3 1 -17 11 -31 24 -14 12 -29 22 -32 22 -12 1
-92 50 -92 56 0 3 24 19 53 35 28 16 59 33 68 39 9 5 38 22 65 38 27 15 56 32
64 37 22 14 272 160 274 160 1 0 87 50 191 110 104 61 191 110 195 110 3 0 11
-5 18 -12z m42 -743 c0 3 16 -6 35 -21 19 -14 35 -22 35 -18 0 5 5 1 11 -9 6
-9 14 -15 20 -12 5 4 9 3 9 -2 0 -4 15 -15 33 -22 17 -8 38 -21 45 -28 7 -7
20 -13 28 -13 28 0 12 -16 -56 -55 -38 -22 -70 -44 -70 -48 0 -5 -4 -6 -9 -2
-5 3 -15 0 -23 -7 -7 -7 -37 -26 -66 -41 -42 -23 -56 -26 -67 -17 -8 7 -15 9
-15 4 0 -4 -7 1 -15 12 -8 10 -15 15 -15 10 0 -5 -9 -1 -20 9 -11 10 -20 14
-20 9 0 -5 -4 -4 -8 2 -4 6 -33 26 -64 44 -32 17 -61 36 -64 41 -3 5 -14 9
-24 9 -60 0 16 57 219 166 l44 23 29 -20 c15 -11 28 -18 28 -14z m-676 -367
c10 -10 22 -15 26 -13 5 3 11 -2 14 -11 3 -8 10 -12 16 -9 5 3 10 1 10 -5 0
-6 5 -8 10 -5 6 3 10 1 10 -4 0 -6 6 -11 13 -11 8 0 24 -9 37 -20 12 -11 26
-17 30 -15 4 3 11 -2 14 -10 3 -8 9 -14 13 -13 4 1 19 -5 33 -14 53 -34 165
-96 174 -96 5 0 12 -5 15 -10 3 -5 22 -17 41 -27 19 -9 43 -24 53 -33 9 -8 17
-11 17 -7 0 5 7 0 16 -11 8 -10 12 -12 8 -4 -6 12 -4 12 12 -1 49 -42 60 -42
119 -4 31 19 57 35 60 35 3 0 35 18 72 40 93 56 78 46 280 163 l182 105 30
-19 c17 -10 31 -15 31 -11 0 4 5 -1 11 -11 6 -9 14 -15 20 -12 5 4 9 2 9 -4 0
-5 10 -13 23 -17 12 -4 41 -19 63 -35 23 -16 44 -26 46 -23 3 3 8 -2 11 -10 4
-11 -30 -36 -124 -90 -72 -42 -135 -76 -140 -76 -5 0 -9 -4 -9 -10 0 -5 -4
-10 -9 -10 -5 0 -55 -27 -111 -60 -56 -33 -106 -60 -111 -60 -5 0 -9 -4 -9
-10 0 -5 -4 -10 -10 -10 -8 0 -127 -66 -180 -100 -8 -5 -37 -22 -65 -38 -27
-16 -67 -38 -88 -50 -44 -26 -55 -27 -76 -8 -9 8 -23 16 -31 18 -8 2 -19 6
-25 11 -42 31 -84 54 -89 49 -3 -3 -6 0 -6 6 0 7 -6 12 -14 12 -8 0 -21 7 -29
15 -8 8 -21 16 -28 17 -7 2 -22 11 -33 20 -10 10 -22 15 -26 13 -5 -3 -11 2
-14 11 -3 8 -10 12 -16 9 -5 -3 -10 -1 -10 5 0 6 -4 8 -10 5 -5 -3 -10 -1 -10
4 0 6 -6 11 -13 11 -8 0 -24 9 -37 20 -12 11 -26 17 -30 15 -5 -3 -10 -2 -12
3 -5 13 -106 71 -112 65 -3 -4 -6 -2 -6 4 0 10 -49 38 -62 35 -5 -1 -8 3 -8 8
0 6 -12 15 -26 20 -15 6 -39 19 -54 30 -15 11 -30 17 -34 13 -3 -3 -6 -1 -6 6
0 7 -4 10 -9 7 -5 -3 -11 1 -15 9 -3 8 -15 15 -26 15 -11 0 -20 4 -20 8 0 10
-50 37 -62 34 -5 -1 -8 4 -8 11 1 14 238 154 260 153 8 -1 24 -9 34 -18z"/>
<path d="M2477 1945 c-56 -15 -54 -15 -67 -15 -20 0 -9 -19 13 -22 22 -3 22
-4 25 -205 2 -185 1 -203 -15 -212 -10 -5 -21 -8 -25 -8 -3 1 -9 -1 -13 -5
-11 -11 33 -17 118 -16 73 1 101 14 57 25 -11 3 -23 16 -26 28 -3 12 -4 118
-2 234 2 137 -1 211 -7 210 -5 0 -31 -7 -58 -14z"/>
<path d="M3673 1948 c-29 -14 -32 -72 -5 -83 43 -19 69 -7 77 37 4 20 -1 31
-17 42 -26 18 -25 18 -55 4z"/>
<path d="M4093 1946 c-50 -27 -93 -97 -93 -152 0 -16 -6 -24 -18 -24 -19 0
-42 -18 -42 -32 0 -4 13 -8 29 -8 l29 0 -2 -114 c-1 -109 -5 -129 -27 -132 -5
-1 -14 -2 -20 -3 -5 0 -8 -5 -4 -11 7 -11 195 -9 195 2 0 5 -11 13 -25 18 -16
6 -25 18 -26 32 0 13 -1 65 -2 116 l-2 92 43 0 c23 0 42 5 42 10 0 6 1 13 3
18 1 4 -18 9 -43 12 -41 5 -45 7 -43 30 6 88 9 100 31 111 19 11 26 9 51 -15
36 -35 66 -29 69 14 2 20 -4 32 -16 39 -22 12 -106 10 -129 -3z"/>
<path d="M1983 1920 c-24 -10 -43 -24 -43 -31 0 -7 -3 -9 -6 -6 -4 4 -22 -12
-40 -36 -64 -80 -70 -201 -14 -282 68 -98 150 -125 296 -95 54 11 59 18 79 89
12 39 -17 46 -35 9 -41 -86 -148 -100 -219 -29 -32 32 -49 93 -49 177 1 90 17
135 60 167 55 41 162 17 196 -44 24 -40 51 -37 42 6 -1 5 -2 22 -2 38 -1 41
-15 46 -143 52 -64 3 -89 0 -122 -15z"/>
<path d="M2798 1758 c-39 -22 -65 -59 -54 -77 11 -18 64 -13 75 7 10 18 11 24
11 46 0 15 44 14 64 -3 10 -9 13 -40 7 -82 -1 -3 -26 -11 -56 -18 -30 -7 -55
-17 -55 -22 0 -5 -7 -9 -15 -9 -18 0 -45 -50 -40 -76 2 -10 4 -22 4 -27 1 -4
15 -16 32 -26 32 -20 84 -16 114 9 12 10 19 10 33 -2 36 -31 122 -11 122 28 0
8 -4 13 -9 10 -5 -4 -15 -4 -23 -1 -10 4 -13 26 -13 83 1 87 -9 138 -33 161
-25 25 -119 24 -164 -1z m108 -195 c-1 -55 -2 -57 -29 -58 -32 -2 -57 18 -57
44 0 22 36 65 47 58 5 -3 15 -2 23 4 8 5 15 9 16 9 0 0 0 -26 0 -57z"/>
<path d="M3280 1769 c-19 -5 -48 -11 -65 -14 -41 -8 -42 -11 -9 -42 26 -25 29
-34 27 -83 -1 -30 -2 -72 -2 -93 -1 -30 -6 -39 -26 -47 -48 -18 -24 -27 70
-27 87 0 123 12 75 24 -10 3 -22 13 -24 22 -8 26 -4 164 5 182 14 27 39 30 65
10 22 -17 63 -19 65 -2 0 3 2 17 5 30 3 15 -2 28 -13 37 -24 17 -83 12 -98 -9
-16 -23 -25 -21 -25 3 0 22 0 22 -50 9z"/>
<path d="M3678 1762 c-44 -9 -68 -20 -68 -28 0 -8 7 -14 15 -14 25 0 34 -34
34 -122 0 -89 -4 -101 -31 -111 -41 -15 -12 -24 76 -25 74 0 94 3 90 13 -3 7
-14 15 -25 18 -19 5 -20 13 -18 141 1 75 1 137 -2 139 -2 2 -34 -3 -71 -11z"/>
<path d="M4283 1767 c-2 -4 7 -11 21 -16 24 -10 33 -26 106 -186 38 -83 38
-88 19 -130 -10 -22 -19 -35 -19 -30 0 6 -6 3 -13 -5 -7 -8 -19 -17 -27 -19
-32 -7 -46 -10 -63 -10 -13 -1 -17 -8 -14 -27 2 -14 9 -29 17 -34 16 -10 57
-3 82 14 20 15 77 86 78 98 0 5 16 43 36 85 49 105 58 127 56 136 -1 4 2 7 6
7 4 0 16 20 26 44 13 32 27 48 47 55 51 17 31 26 -56 26 -86 0 -105 -8 -61
-25 32 -12 36 -20 23 -50 -5 -14 -11 -30 -12 -35 -2 -6 -12 -26 -23 -45 l-21
-34 -16 37 c-8 20 -15 38 -15 39 1 2 -6 20 -15 41 -15 37 -15 37 10 47 14 5
25 13 25 17 0 10 -190 10 -197 0z"/>
</g>
</svg>
